{"tags": ["ffmpeg", "mp4", "demux", "mux"], "context": "\u30cd\u30af\u30b9\u30c8\u30b9\u30b1\u30fc\u30d7\u914d\u4fe1\u4e8b\u696d\u672c\u90e8\u306eAdvent Calendar 2016\u306e1\u65e5\u76ee\u3063\u3066\u4e8b\u3067\u3001\u3053\u306e\u5148\u306e\u30cf\u30fc\u30c9\u30eb\u3092\u4e0a\u3052\u306a\u3044\u70ba\u306b\u3082\n\u4f4e\u7a7a\u98db\u884c\u3067\u59cb\u3081\u307e\u3059\u3002\n\nffmpeg\n\u52d5\u753b\u914d\u4fe1\u306e\u4ed5\u4e8b\u3092\u3057\u3066\u3044\u308c\u3070\u3001\u5fc5\u305a\u4e00\u5ea6\u306f\u4f7f\u3046\u4e8b\u306b\u306a\u308b\u3060\u308d\u3046\u3053\u306e\u30c4\u30fc\u30eb\u3002\n\u500b\u4eba\u7684\u306b\u306f\u3001\u30a2\u30a6\u30c8\u30d7\u30c3\u30c8\u3055\u308c\u308bmp4\u306b\u7656\u304c\u6709\u3063\u305f\u308a\u3057\u3066\u4f59\u308a\u597d\u304d\u3067\u306f\u7121\u3044\u306e\u3067\u3059\u304c\u3001\u6709\u7528\u306a\u30c4\u30fc\u30eb\u3067\u3042\u308b\u306e\u306f\u78ba\u304b\u306a\u306e\u3067\n\u5c40\u5730\u7684\u306b\u4f7f\u7528\u3057\u3066\u3044\u307e\u3059\u3002\n\nmp4\u3092demux\n\u6700\u8fd1\u306f\u914d\u4fe1\u65b9\u6cd5\u306bMPEG-DASH\u304c\u4f7f\u308f\u308c\u308b\u4e8b\u304c\u591a\u3044\u3067\u3059\u304c\u3001\u4e16\u306b\u51fa\u3066\u3044\u308bMPEG-DASH\u306e\u30d7\u30ec\u30fc\u30e4\u30fc\u306e\u307b\u3068\u3093\u3069\u306fmux\u3055\u308c\u305fmp4\u306e\n\u518d\u751f\u306b\u5bfe\u5fdc\u3057\u3066\u3044\u306a\u3044\u3068\u601d\u3044\u307e\u3059\u3002\uff08\u81ea\u5206\u306f\u898b\u305f\u3053\u3068\u304c\u3042\u308a\u307e\u305b\u3093\uff09\n\u4e00\u65b9\u3067\u914d\u4fe1\u30b7\u30b9\u30c6\u30e0\u5074\u306b\u7d0d\u54c1\u3055\u308c\u308bmp4\u304c\u5fc5\u305ademux\u3055\u308c\u3066\u3044\u308b\u3068\u306f\u9650\u3089\u306a\u3044\u308f\u3051\u3067\u30fb\u30fb\u30fb\n\u305d\u306e\u69d8\u306a\u6642\u306f\u3001\u53d7\u3051\u53d6\u3063\u305f\u5074\u3067demux\u3057\u3066\u6620\u50cf\u30c8\u30e9\u30c3\u30af\u306e\u307f\u306emp4\u3068\u97f3\u58f0\u30c8\u30e9\u30c3\u30af\u306e\u307f\u306emp4\u306b\u5206\u96e2\u3057\u3066\u3042\u3052\u308b\u5fc5\u8981\u304c\u3042\u308a\u307e\u3059\u3002\n\u305d\u3093\u306a\u6642\u306b\u4f7f\u3048\u308b\u30c4\u30fc\u30eb\u306e\u4e00\u3064\u304c\u3001ffmpeg\u3067\u3059\u3002\n\u30fb\u6700\u521d\u306e\u30c8\u30e9\u30c3\u30af\u3092\u5206\u96e2\nffmpeg -i some_muxed.mp4 -map 0:0 -codec copy some_first_track.mp4\n\n\u30fb2\u756a\u76ee\u306e\u30c8\u30e9\u30c3\u30af\u3092\u5206\u96e2\nffmpeg -i some_muxd.mp4 -map 0:1 -codec copy some_second_track.mp4\n\n\u3053\u3093\u306a\u611f\u3058\u3067\u30b3\u30de\u30f3\u30c9\u5b9f\u884c\u3059\u308c\u3070demux\u51fa\u6765\u307e\u3059\u3002\n-map\u306b\u8a2d\u5b9a\u3059\u308b x:x \u306f\u3001\nffmpeg -i some_muxed.mp4\n\n\u3067\u30d5\u30a1\u30a4\u30eb\u60c5\u5831\u3092\u51fa\u529b\u3057\u305f\u969b\u306e\nInput #0, mov,mp4,m4a,3gp,3g2,mj2, from 'some_muxed.mp4':\n  Metadata:\n    major_brand     : isom\n    minor_version   : 512\n    compatible_brands: isomiso2avc1mp41\n    creation_time   : 1970-01-01T00:00:00.000000Z\n    encoder         : Lavf52.62.0\n  Duration: 00:00:52.21, start: 0.000000, bitrate: 2240 kb/s\n    Stream #0:0(und): Video: h264 (High) (avc1 / 0x31637661), yuv420p, 1920x1080, 2108 kb/s, 24 fps, 24 tbr, 24 tbn, 48\ntbc (default)\n    Metadata:\n      creation_time   : 1970-01-01T00:00:00.000000Z\n      handler_name    : VideoHandler\n    Stream #0:1(und): Audio: aac (LC) (mp4a / 0x6134706D), 48000 Hz, stereo, fltp, 126 kb/s (default)\n    Metadata:\n      creation_time   : 1970-01-01T00:00:00.000000Z\n      handler_name    : SoundHandler\n\nStream #x:x\u306e\u90e8\u5206\u3092\u8a2d\u5b9a\u3057\u307e\u3059\u3002\n\nmp4\u3092mux\n\u4f59\u308a\u4f7f\u3046\u6a5f\u4f1a\u306f\u7121\u3044\u3068\u601d\u3044\u307e\u3059\u304c\u3001ffmpeg\u3092\u4f7f\u3063\u305fmp4\u306emux\u306e\u65b9\u6cd5\u3082\u66f8\u3044\u3066\u304a\u304d\u307e\u3059\u3002\n\u30b3\u30de\u30f3\u30c9\u3068\u3057\u3066\u306f\u3001\nffmpeg -i some_muxed_0.mp4 -i some_muxed_1.mp4 -map 0:0 -map 1:0 -codec copy new_muxed.mp4\n\nsome_muxed_0.mp4\u306eStream #0:0\u3068some_muxed_1.mp4\u306eStream #1:0\u3092mux\u3059\u308b\u3001\u3068\u3044\u3046\u51e6\u7406\u306b\u306a\u308a\u307e\u3059\u3002\n\n\u3055\u3066\u3001\n\u6b64\u51e6\u307e\u3067\u66f8\u3044\u3066\u304a\u304d\u306a\u304c\u3089\u3001\u81ea\u5206\u306fmp4\u306edemux\u306bffmpeg\u306f\u4f7f\u3063\u3066\u3044\u306a\u304b\u3063\u305f\u308a\u3057\u307e\u3059\u3002\n\u30b3\u30de\u30f3\u30c9\u304c\u9577\u304b\u3063\u305f\u308a\u3059\u308b\u305b\u3044\u3082\u6709\u308b\u306e\u3067\u3059\u304c\u3001\u7d4c\u9a13\u4e0a\u3001\u51fa\u6765\u3066\u304f\u308bmp4\u306e\u4e92\u63db\u6027\u306b\u82e5\u5e72\u306e\u4e0d\u5b89\u304c\u3042\u308b\u304b\u3089\u3060\u3063\u305f\u308a\u3057\u307e\u3059\u3002\n\u81ea\u5206\u304c\u666e\u6bb5\u4f7f\u3063\u3066\u3044\u308b\u306e\u306fmp4box\u3067\u3001mp4box\u3060\u3068\u30b3\u30de\u30f3\u30c9\u306f\nmp4box -single 1 some_muxed.mp4 -out some_track_1.mp4\nmp4box -single 2 some_muxed.mp4 -out some_track_2.mp4\n\n\u307f\u305f\u3044\u306b\u306a\u308a\u307e\u3059\u3002-single\u306e\u5f8c\u306e\u6570\u5024\u306f\u3001mp4\u304b\u3089\u629c\u304d\u51fa\u3059\u30c8\u30e9\u30c3\u30af\u306eID\u306b\u306a\u308a\u307e\u3059\u3002\n\u4ed6\u306b\u3082\u5225\u306a\u30a2\u30d7\u30ed\u30fc\u30c1\u3067\u3001\nmp4box -rem 2 some_muxed.mp4 -out some_track_1.mp4\nmp4box -rem 1 some_muxed.mp4 -out some_track_2.mp4\n\n\u3053\u3093\u306a\u98a8\u306bdemux\u3059\u308b\u3053\u3068\u3082\u53ef\u80fd\u3067\u3059\u3002\n\u3053\u308c\u306f\u6307\u5b9a\u3055\u308c\u305f\u30c8\u30e9\u30c3\u30afID\u3092mp4\u304b\u3089\u524a\u9664\u3059\u308b\u5f62\u3067demux\u3092\u5b9f\u73fe\u3057\u3066\u3044\u307e\u3059\u3002\nmp4box\u306fmp4box\u3067\u3001\u30c8\u30e9\u30c3\u30afID\u3092\u4e88\u3081\u77e5\u3063\u3066\u3044\u306a\u3044\u3068\u8272\u3005\u3068\u4e0d\u4fbf\u306a\u306e\u3067\u3059\u304c\u30fb\u30fb\u30fb\n\u30c8\u30e9\u30c3\u30afID\u306f\u5fc5\u305a\u3057\u30821\u304b\u3089\u59cb\u307e\u308b\u3068\u306f\u9650\u308a\u307e\u305b\u3093\u3057\u3001MPEG-2 TS\u304b\u3089\u5909\u63db\u3055\u308c\u305fmp4\u3060\u3068PID\u304c\u305d\u306e\u307e\u307e\u30c8\u30e9\u30c3\u30afID\u306b\n\u306a\u3063\u3066\u3044\u305f\u308a\u3059\u308b\u5834\u5408\u3082\u3042\u308a\u307e\u3059\u304b\u3089\u3002\n\n\u3068\u8a00\u3046\u4e8b\u3067\n\u3086\u308b\u30fc\u304f\u4f4e\u7a7a\u98db\u884c\u3067\u59cb\u307e\u3063\u305f\u30cd\u30af\u30b9\u30c8\u30b9\u30b1\u30fc\u30d7\u914d\u4fe1\u4e8b\u696d\u672c\u90e8\u306eAdvent Calendar 2016\u3001\u3053\u306e\u5148\u3057\u3070\u3089\u304f\u3088\u308d\u3057\u304f\u304a\u9858\u3044\u3057\u307e\u3059\u3002\n\u81ea\u5206\u306f\u3001\u307d\u3064\u307d\u3064\u3068\u7a7a\u3044\u3066\u3044\u308b\u65e5\u306b\u3086\u308b\u30fc\u304f\u5c0f\u30cd\u30bf\u3092\u6295\u4e0b\u3057\u3066\u3044\u304f\u4e88\u5b9a\u3067\u3059\u3002\n\u30cd\u30af\u30b9\u30c8\u30b9\u30b1\u30fc\u30d7\u914d\u4fe1\u4e8b\u696d\u672c\u90e8\u306eAdvent Calendar 2016\u306e1\u65e5\u76ee\u3063\u3066\u4e8b\u3067\u3001\u3053\u306e\u5148\u306e\u30cf\u30fc\u30c9\u30eb\u3092\u4e0a\u3052\u306a\u3044\u70ba\u306b\u3082\n\u4f4e\u7a7a\u98db\u884c\u3067\u59cb\u3081\u307e\u3059\u3002\n\n## ffmpeg\n\n\u52d5\u753b\u914d\u4fe1\u306e\u4ed5\u4e8b\u3092\u3057\u3066\u3044\u308c\u3070\u3001\u5fc5\u305a\u4e00\u5ea6\u306f\u4f7f\u3046\u4e8b\u306b\u306a\u308b\u3060\u308d\u3046\u3053\u306e\u30c4\u30fc\u30eb\u3002\n\u500b\u4eba\u7684\u306b\u306f\u3001\u30a2\u30a6\u30c8\u30d7\u30c3\u30c8\u3055\u308c\u308bmp4\u306b\u7656\u304c\u6709\u3063\u305f\u308a\u3057\u3066\u4f59\u308a\u597d\u304d\u3067\u306f\u7121\u3044\u306e\u3067\u3059\u304c\u3001\u6709\u7528\u306a\u30c4\u30fc\u30eb\u3067\u3042\u308b\u306e\u306f\u78ba\u304b\u306a\u306e\u3067\n\u5c40\u5730\u7684\u306b\u4f7f\u7528\u3057\u3066\u3044\u307e\u3059\u3002\n\n## mp4\u3092demux\n\n\u6700\u8fd1\u306f\u914d\u4fe1\u65b9\u6cd5\u306bMPEG-DASH\u304c\u4f7f\u308f\u308c\u308b\u4e8b\u304c\u591a\u3044\u3067\u3059\u304c\u3001\u4e16\u306b\u51fa\u3066\u3044\u308bMPEG-DASH\u306e\u30d7\u30ec\u30fc\u30e4\u30fc\u306e\u307b\u3068\u3093\u3069\u306fmux\u3055\u308c\u305fmp4\u306e\n\u518d\u751f\u306b\u5bfe\u5fdc\u3057\u3066\u3044\u306a\u3044\u3068\u601d\u3044\u307e\u3059\u3002\uff08\u81ea\u5206\u306f\u898b\u305f\u3053\u3068\u304c\u3042\u308a\u307e\u305b\u3093\uff09\n\n\u4e00\u65b9\u3067\u914d\u4fe1\u30b7\u30b9\u30c6\u30e0\u5074\u306b\u7d0d\u54c1\u3055\u308c\u308bmp4\u304c\u5fc5\u305ademux\u3055\u308c\u3066\u3044\u308b\u3068\u306f\u9650\u3089\u306a\u3044\u308f\u3051\u3067\u30fb\u30fb\u30fb\n\u305d\u306e\u69d8\u306a\u6642\u306f\u3001\u53d7\u3051\u53d6\u3063\u305f\u5074\u3067demux\u3057\u3066\u6620\u50cf\u30c8\u30e9\u30c3\u30af\u306e\u307f\u306emp4\u3068\u97f3\u58f0\u30c8\u30e9\u30c3\u30af\u306e\u307f\u306emp4\u306b\u5206\u96e2\u3057\u3066\u3042\u3052\u308b\u5fc5\u8981\u304c\u3042\u308a\u307e\u3059\u3002\n\u305d\u3093\u306a\u6642\u306b\u4f7f\u3048\u308b\u30c4\u30fc\u30eb\u306e\u4e00\u3064\u304c\u3001ffmpeg\u3067\u3059\u3002\n\n\u30fb\u6700\u521d\u306e\u30c8\u30e9\u30c3\u30af\u3092\u5206\u96e2\n\n```\nffmpeg -i some_muxed.mp4 -map 0:0 -codec copy some_first_track.mp4\n```\n\u30fb2\u756a\u76ee\u306e\u30c8\u30e9\u30c3\u30af\u3092\u5206\u96e2\n\n```\nffmpeg -i some_muxd.mp4 -map 0:1 -codec copy some_second_track.mp4\n```\n\u3053\u3093\u306a\u611f\u3058\u3067\u30b3\u30de\u30f3\u30c9\u5b9f\u884c\u3059\u308c\u3070demux\u51fa\u6765\u307e\u3059\u3002\n\n-map\u306b\u8a2d\u5b9a\u3059\u308b x:x \u306f\u3001\n\n```\nffmpeg -i some_muxed.mp4\n```\n\u3067\u30d5\u30a1\u30a4\u30eb\u60c5\u5831\u3092\u51fa\u529b\u3057\u305f\u969b\u306e\n\n```\nInput #0, mov,mp4,m4a,3gp,3g2,mj2, from 'some_muxed.mp4':\n  Metadata:\n    major_brand     : isom\n    minor_version   : 512\n    compatible_brands: isomiso2avc1mp41\n    creation_time   : 1970-01-01T00:00:00.000000Z\n    encoder         : Lavf52.62.0\n  Duration: 00:00:52.21, start: 0.000000, bitrate: 2240 kb/s\n    Stream #0:0(und): Video: h264 (High) (avc1 / 0x31637661), yuv420p, 1920x1080, 2108 kb/s, 24 fps, 24 tbr, 24 tbn, 48\ntbc (default)\n    Metadata:\n      creation_time   : 1970-01-01T00:00:00.000000Z\n      handler_name    : VideoHandler\n    Stream #0:1(und): Audio: aac (LC) (mp4a / 0x6134706D), 48000 Hz, stereo, fltp, 126 kb/s (default)\n    Metadata:\n      creation_time   : 1970-01-01T00:00:00.000000Z\n      handler_name    : SoundHandler\n```\nStream #x:x\u306e\u90e8\u5206\u3092\u8a2d\u5b9a\u3057\u307e\u3059\u3002\n\n## mp4\u3092mux\n\n\u4f59\u308a\u4f7f\u3046\u6a5f\u4f1a\u306f\u7121\u3044\u3068\u601d\u3044\u307e\u3059\u304c\u3001ffmpeg\u3092\u4f7f\u3063\u305fmp4\u306emux\u306e\u65b9\u6cd5\u3082\u66f8\u3044\u3066\u304a\u304d\u307e\u3059\u3002\n\n\u30b3\u30de\u30f3\u30c9\u3068\u3057\u3066\u306f\u3001\n\n```\nffmpeg -i some_muxed_0.mp4 -i some_muxed_1.mp4 -map 0:0 -map 1:0 -codec copy new_muxed.mp4\n```\nsome_muxed_0.mp4\u306eStream #0:0\u3068some_muxed_1.mp4\u306eStream #1:0\u3092mux\u3059\u308b\u3001\u3068\u3044\u3046\u51e6\u7406\u306b\u306a\u308a\u307e\u3059\u3002\n\n## \u3055\u3066\u3001\n\n\u6b64\u51e6\u307e\u3067\u66f8\u3044\u3066\u304a\u304d\u306a\u304c\u3089\u3001\u81ea\u5206\u306fmp4\u306edemux\u306bffmpeg\u306f\u4f7f\u3063\u3066\u3044\u306a\u304b\u3063\u305f\u308a\u3057\u307e\u3059\u3002\n\u30b3\u30de\u30f3\u30c9\u304c\u9577\u304b\u3063\u305f\u308a\u3059\u308b\u305b\u3044\u3082\u6709\u308b\u306e\u3067\u3059\u304c\u3001\u7d4c\u9a13\u4e0a\u3001\u51fa\u6765\u3066\u304f\u308bmp4\u306e\u4e92\u63db\u6027\u306b\u82e5\u5e72\u306e\u4e0d\u5b89\u304c\u3042\u308b\u304b\u3089\u3060\u3063\u305f\u308a\u3057\u307e\u3059\u3002\n\n\u81ea\u5206\u304c\u666e\u6bb5\u4f7f\u3063\u3066\u3044\u308b\u306e\u306fmp4box\u3067\u3001mp4box\u3060\u3068\u30b3\u30de\u30f3\u30c9\u306f\n\n```\nmp4box -single 1 some_muxed.mp4 -out some_track_1.mp4\nmp4box -single 2 some_muxed.mp4 -out some_track_2.mp4\n```\n\u307f\u305f\u3044\u306b\u306a\u308a\u307e\u3059\u3002-single\u306e\u5f8c\u306e\u6570\u5024\u306f\u3001mp4\u304b\u3089\u629c\u304d\u51fa\u3059\u30c8\u30e9\u30c3\u30af\u306eID\u306b\u306a\u308a\u307e\u3059\u3002\n\u4ed6\u306b\u3082\u5225\u306a\u30a2\u30d7\u30ed\u30fc\u30c1\u3067\u3001\n\n```\nmp4box -rem 2 some_muxed.mp4 -out some_track_1.mp4\nmp4box -rem 1 some_muxed.mp4 -out some_track_2.mp4\n```\n\u3053\u3093\u306a\u98a8\u306bdemux\u3059\u308b\u3053\u3068\u3082\u53ef\u80fd\u3067\u3059\u3002\n\u3053\u308c\u306f\u6307\u5b9a\u3055\u308c\u305f\u30c8\u30e9\u30c3\u30afID\u3092mp4\u304b\u3089\u524a\u9664\u3059\u308b\u5f62\u3067demux\u3092\u5b9f\u73fe\u3057\u3066\u3044\u307e\u3059\u3002\n\nmp4box\u306fmp4box\u3067\u3001\u30c8\u30e9\u30c3\u30afID\u3092\u4e88\u3081\u77e5\u3063\u3066\u3044\u306a\u3044\u3068\u8272\u3005\u3068\u4e0d\u4fbf\u306a\u306e\u3067\u3059\u304c\u30fb\u30fb\u30fb\n\u30c8\u30e9\u30c3\u30afID\u306f\u5fc5\u305a\u3057\u30821\u304b\u3089\u59cb\u307e\u308b\u3068\u306f\u9650\u308a\u307e\u305b\u3093\u3057\u3001MPEG-2 TS\u304b\u3089\u5909\u63db\u3055\u308c\u305fmp4\u3060\u3068PID\u304c\u305d\u306e\u307e\u307e\u30c8\u30e9\u30c3\u30afID\u306b\n\u306a\u3063\u3066\u3044\u305f\u308a\u3059\u308b\u5834\u5408\u3082\u3042\u308a\u307e\u3059\u304b\u3089\u3002\n\n## \u3068\u8a00\u3046\u4e8b\u3067\n\u3086\u308b\u30fc\u304f\u4f4e\u7a7a\u98db\u884c\u3067\u59cb\u307e\u3063\u305f\u30cd\u30af\u30b9\u30c8\u30b9\u30b1\u30fc\u30d7\u914d\u4fe1\u4e8b\u696d\u672c\u90e8\u306eAdvent Calendar 2016\u3001\u3053\u306e\u5148\u3057\u3070\u3089\u304f\u3088\u308d\u3057\u304f\u304a\u9858\u3044\u3057\u307e\u3059\u3002\n\u81ea\u5206\u306f\u3001\u307d\u3064\u307d\u3064\u3068\u7a7a\u3044\u3066\u3044\u308b\u65e5\u306b\u3086\u308b\u30fc\u304f\u5c0f\u30cd\u30bf\u3092\u6295\u4e0b\u3057\u3066\u3044\u304f\u4e88\u5b9a\u3067\u3059\u3002\n"}